<svg width="610" height="431" xmlns="http://www.w3.org/2000/svg" xmlns:xlink="http://www.w3.org/1999/xlink" xml:space="preserve" overflow="hidden"><g transform="translate(-368 -145)"><g><g><g><path d="M59.9506 149.877 59.9506 569.531 659.457 569.531 659.457 149.877 59.9506 149.877ZM370.195 411.411C364.2 417.406 355.207 417.406 349.212 411.411L127.395 194.84 592.762 194.84 370.195 411.411ZM251.043 357.456 104.914 504.335 104.914 214.323 251.043 357.456ZM272.775 378.438 328.979 433.143C337.972 441.386 349.212 445.883 360.453 445.883 371.694 445.883 382.935 441.386 391.927 433.143L448.131 378.438 593.511 524.568 126.646 524.568 272.775 378.438ZM468.364 357.456 614.494 215.073 614.494 503.585 468.364 357.456Z" fill="#000000" fill-rule="nonzero" fill-opacity="1" transform="matrix(1 0 0 1.00081 312.548 0.504028)"/></g></g></g></g></svg>