<svg width="500" height="596" xmlns="http://www.w3.org/2000/svg" xmlns:xlink="http://www.w3.org/1999/xlink" xml:space="preserve" overflow="hidden"><g transform="translate(-397 -52)"><g><g><g><path d="M546.198 172.626C517.202 105.868 464.605 53.9455 396.499 26.9727L386.384 51.9225C447.073 76.198 494.95 122.726 521.248 183.415 546.872 244.103 548.221 310.861 523.945 371.549 499.67 432.238 453.142 480.115 392.453 506.413 331.765 532.037 265.007 533.386 204.318 509.11L194.204 534.06C219.154 544.175 245.452 550.244 271.75 552.267L271.75 578.565 136.887 578.565 136.887 619.024 460.56 619.024 460.56 578.565 325.696 578.565 325.696 551.593C351.994 548.895 377.618 541.478 403.242 531.363 470.674 502.367 521.923 449.77 548.895 381.664 575.868 313.558 575.194 240.057 546.198 172.626Z" fill="#000000" fill-rule="nonzero" fill-opacity="1" transform="matrix(1 0 0 1.00017 322.578 27.5226)"/><path d="M515.854 280.516C515.854 401.552 417.735 499.67 296.7 499.67 175.665 499.67 77.5466 401.552 77.5466 280.516 77.5466 159.481 175.665 61.363 296.7 61.363 417.735 61.363 515.854 159.481 515.854 280.516Z" fill="#000000" fill-rule="nonzero" fill-opacity="1" transform="matrix(1 0 0 1.00017 322.578 27.5226)"/></g></g></g></g></svg>