<svg width="605" height="368" xmlns="http://www.w3.org/2000/svg" xmlns:xlink="http://www.w3.org/1999/xlink" xml:space="preserve" overflow="hidden"><g transform="translate(-328 -176)"><g><g><g><path d="M634.72 355.203 499.832 331.223 458.617 299C454.12 296.003 448.125 298.251 446.627 303.496L437.634 339.466C405.411 312.489 356.702 294.504 301.998 292.256 225.561 290.008 157.368 345.461 150.624 421.897 148.376 445.128 152.123 466.86 159.617 486.344 117.652 459.366 89.9249 412.905 89.9249 359.699 89.9249 277.268 156.619 210.574 239.05 209.825 246.544 209.825 254.038 204.579 254.787 197.085 256.286 187.343 248.792 179.85 239.8 179.85 141.632 179.85 61.4486 258.534 59.9499 356.702 58.4512 457.118 143.13 539.549 243.546 539.549L322.231 539.549C334.97 539.549 344.712 529.807 344.712 517.068 344.712 504.329 334.97 494.587 322.231 494.587L286.261 494.587C296.752 487.093 303.496 475.103 303.496 460.865 303.496 442.88 291.506 426.394 274.271 421.148 268.276 419.649 265.278 412.905 266.777 406.91 268.276 400.915 275.02 397.917 281.015 399.416 307.993 407.659 326.727 432.389 326.727 460.115 326.727 463.862 325.978 467.609 325.228 471.356 348.459 472.855 367.942 492.339 367.942 516.318 367.942 521.564 367.193 526.81 364.945 531.306 384.429 535.802 407.659 538.8 435.386 538.8L502.83 538.8C515.569 538.8 525.311 529.058 525.311 516.318 525.311 503.579 515.569 493.837 502.83 493.837L480.349 493.837 648.958 402.414C655.702 398.667 659.449 391.922 660.198 385.178 660.198 370.94 648.958 358.201 634.72 355.203Z" fill="#000000" fill-rule="nonzero" fill-opacity="1" transform="matrix(1 0 0 1.00082 271.549 0.00472125)"/></g></g></g></g></svg>